# xmcd CD database file
#
# Track frame offsets:
#	150
#	13854
#	52856
#	87991
#	117033
#	137413
#	148717
#	180855
#	216344
#
# Disc length: 3780 seconds
#
# Revision: 0
# Processed by: cddbd v1.5.2PL0 Copyright (c) Steve Scherf et al.
# Submitted via: CDex 1.51
#
DISCID=720ec209
DTITLE=Andrey Klimkovsky - Evolution - CD1
DYEAR=2004
DGENRE=New Age
TTITLE0=Evo-tronic
TTITLE1=Departure
TTITLE2=Calling Distances
TTITLE3=Andromeda
TTITLE4=Milky Way
TTITLE5=Last Callcries from the Mars
TTITLE6=Secrets of Mars
TTITLE7=Farewell with Mars
TTITLE8=DATA
EXTD=YEAR: 2004
EXTT0=
EXTT1=
EXTT2=
EXTT3=
EXTT4=
EXTT5=
EXTT6=
EXTT7=
EXTT8=
PLAYORDER=
